<mxfile host="app.diagrams.net" modified="2023-12-24T23:16:11.144Z" agent="Mozilla/5.0 (Windows NT 10.0; Win64; x64) AppleWebKit/537.36 (KHTML, like Gecko) Chrome/119.0.0.0 Safari/537.36 OPR/105.0.0.0" etag="zI4jZc0Awm5eQlyOi0kp" version="22.1.11" type="device">
  <diagram name="Page-1" id="7Kjx3G71WdkJQHfTWMpJ">
    <mxGraphModel dx="3376" dy="948" grid="1" gridSize="10" guides="1" tooltips="1" connect="1" arrows="1" fold="1" page="1" pageScale="1" pageWidth="850" pageHeight="1100" math="0" shadow="0">
      <root>
        <mxCell id="0" />
        <mxCell id="1" parent="0" />
        <mxCell id="6Mjb6FcMD5mgjPWifC1B-21" value="Film" style="swimlane;fontStyle=1;align=center;verticalAlign=top;childLayout=stackLayout;horizontal=1;startSize=26;horizontalStack=0;resizeParent=1;resizeParentMax=0;resizeLast=0;collapsible=1;marginBottom=0;whiteSpace=wrap;html=1;" vertex="1" parent="1">
          <mxGeometry x="-870" y="440" width="160" height="90" as="geometry" />
        </mxCell>
        <mxCell id="6Mjb6FcMD5mgjPWifC1B-22" value="+ name: String&lt;br&gt;+ description: String&lt;br&gt;+ duration:&amp;nbsp;DateTimePeriod" style="text;strokeColor=none;fillColor=none;align=left;verticalAlign=top;spacingLeft=4;spacingRight=4;overflow=hidden;rotatable=0;points=[[0,0.5],[1,0.5]];portConstraint=eastwest;whiteSpace=wrap;html=1;" vertex="1" parent="6Mjb6FcMD5mgjPWifC1B-21">
          <mxGeometry y="26" width="160" height="64" as="geometry" />
        </mxCell>
        <mxCell id="6Mjb6FcMD5mgjPWifC1B-36" value="FilmsRegistry : Registry" style="swimlane;fontStyle=1;align=center;verticalAlign=top;childLayout=stackLayout;horizontal=1;startSize=30;horizontalStack=0;resizeParent=1;resizeParentMax=0;resizeLast=0;collapsible=1;marginBottom=0;whiteSpace=wrap;html=1;" vertex="1" parent="1">
          <mxGeometry x="-878" y="240" width="380" height="140" as="geometry" />
        </mxCell>
        <mxCell id="6Mjb6FcMD5mgjPWifC1B-37" value="- films: HashMap&amp;lt;String, Film&amp;gt;" style="text;strokeColor=none;fillColor=none;align=left;verticalAlign=top;spacingLeft=4;spacingRight=4;overflow=hidden;rotatable=0;points=[[0,0.5],[1,0.5]];portConstraint=eastwest;whiteSpace=wrap;html=1;" vertex="1" parent="6Mjb6FcMD5mgjPWifC1B-36">
          <mxGeometry y="30" width="380" height="30" as="geometry" />
        </mxCell>
        <mxCell id="6Mjb6FcMD5mgjPWifC1B-38" value="" style="line;strokeWidth=1;fillColor=none;align=left;verticalAlign=middle;spacingTop=-1;spacingLeft=3;spacingRight=3;rotatable=0;labelPosition=right;points=[];portConstraint=eastwest;strokeColor=inherit;" vertex="1" parent="6Mjb6FcMD5mgjPWifC1B-36">
          <mxGeometry y="60" width="380" height="8" as="geometry" />
        </mxCell>
        <mxCell id="6Mjb6FcMD5mgjPWifC1B-39" value="+&amp;nbsp;addFilm(name: String, description: String, duration: Duration): Film&lt;br&gt;+&amp;nbsp;fun getFilm(name: String): Film?&lt;br&gt;+&amp;nbsp;fun renameFilm(oldName: String, newName: String): Boolean&lt;br&gt;+&amp;nbsp;fun deleteFilm(name: String): Film?" style="text;strokeColor=none;fillColor=none;align=left;verticalAlign=top;spacingLeft=4;spacingRight=4;overflow=hidden;rotatable=0;points=[[0,0.5],[1,0.5]];portConstraint=eastwest;whiteSpace=wrap;html=1;" vertex="1" parent="6Mjb6FcMD5mgjPWifC1B-36">
          <mxGeometry y="68" width="380" height="72" as="geometry" />
        </mxCell>
        <mxCell id="6Mjb6FcMD5mgjPWifC1B-25" value="App" style="swimlane;fontStyle=1;align=center;verticalAlign=top;childLayout=stackLayout;horizontal=1;startSize=26;horizontalStack=0;resizeParent=1;resizeParentMax=0;resizeLast=0;collapsible=1;marginBottom=0;whiteSpace=wrap;html=1;" vertex="1" parent="1">
          <mxGeometry x="-800" y="761" width="200" height="158" as="geometry" />
        </mxCell>
        <mxCell id="6Mjb6FcMD5mgjPWifC1B-26" value="- sessionsReg:&amp;nbsp;SessionsRegistry&lt;div&gt;- ticketsReg:&amp;nbsp;TicketsRegistry&lt;/div&gt;&lt;div&gt;- staffReg:&amp;nbsp;StaffRegistry&lt;/div&gt;&lt;div&gt;- filmsReg:&amp;nbsp;FilmsRegistry&lt;/div&gt;&lt;div&gt;- interactor:&amp;nbsp;UserInteractor&lt;/div&gt;" style="text;strokeColor=none;fillColor=none;align=left;verticalAlign=top;spacingLeft=4;spacingRight=4;overflow=hidden;rotatable=0;points=[[0,0.5],[1,0.5]];portConstraint=eastwest;whiteSpace=wrap;html=1;" vertex="1" parent="6Mjb6FcMD5mgjPWifC1B-25">
          <mxGeometry y="26" width="200" height="84" as="geometry" />
        </mxCell>
        <mxCell id="6Mjb6FcMD5mgjPWifC1B-27" value="" style="line;strokeWidth=1;fillColor=none;align=left;verticalAlign=middle;spacingTop=-1;spacingLeft=3;spacingRight=3;rotatable=0;labelPosition=right;points=[];portConstraint=eastwest;strokeColor=inherit;" vertex="1" parent="6Mjb6FcMD5mgjPWifC1B-25">
          <mxGeometry y="110" width="200" height="8" as="geometry" />
        </mxCell>
        <mxCell id="6Mjb6FcMD5mgjPWifC1B-28" value="+&amp;nbsp;run()&lt;br&gt;+ saveStateOnExit()" style="text;strokeColor=none;fillColor=none;align=left;verticalAlign=top;spacingLeft=4;spacingRight=4;overflow=hidden;rotatable=0;points=[[0,0.5],[1,0.5]];portConstraint=eastwest;whiteSpace=wrap;html=1;" vertex="1" parent="6Mjb6FcMD5mgjPWifC1B-25">
          <mxGeometry y="118" width="200" height="40" as="geometry" />
        </mxCell>
        <mxCell id="6Mjb6FcMD5mgjPWifC1B-40" value="Registry" style="swimlane;fontStyle=1;align=center;verticalAlign=top;childLayout=stackLayout;horizontal=1;startSize=26;horizontalStack=0;resizeParent=1;resizeParentMax=0;resizeLast=0;collapsible=1;marginBottom=0;whiteSpace=wrap;html=1;" vertex="1" parent="1">
          <mxGeometry x="-870" y="120" width="160" height="52" as="geometry" />
        </mxCell>
        <mxCell id="6Mjb6FcMD5mgjPWifC1B-43" value="+&amp;nbsp;saveToFile()" style="text;strokeColor=none;fillColor=none;align=left;verticalAlign=top;spacingLeft=4;spacingRight=4;overflow=hidden;rotatable=0;points=[[0,0.5],[1,0.5]];portConstraint=eastwest;whiteSpace=wrap;html=1;" vertex="1" parent="6Mjb6FcMD5mgjPWifC1B-40">
          <mxGeometry y="26" width="160" height="26" as="geometry" />
        </mxCell>
        <mxCell id="6Mjb6FcMD5mgjPWifC1B-44" value="SeatInfo" style="swimlane;fontStyle=1;align=center;verticalAlign=top;childLayout=stackLayout;horizontal=1;startSize=26;horizontalStack=0;resizeParent=1;resizeParentMax=0;resizeLast=0;collapsible=1;marginBottom=0;whiteSpace=wrap;html=1;" vertex="1" parent="1">
          <mxGeometry x="-200" y="650" width="160" height="70" as="geometry" />
        </mxCell>
        <mxCell id="6Mjb6FcMD5mgjPWifC1B-45" value="+ ticket: Ticket?&lt;br&gt;+ taken: Boolean" style="text;strokeColor=none;fillColor=none;align=left;verticalAlign=top;spacingLeft=4;spacingRight=4;overflow=hidden;rotatable=0;points=[[0,0.5],[1,0.5]];portConstraint=eastwest;whiteSpace=wrap;html=1;" vertex="1" parent="6Mjb6FcMD5mgjPWifC1B-44">
          <mxGeometry y="26" width="160" height="44" as="geometry" />
        </mxCell>
        <mxCell id="6Mjb6FcMD5mgjPWifC1B-48" value="Session" style="swimlane;fontStyle=1;align=center;verticalAlign=top;childLayout=stackLayout;horizontal=1;startSize=26;horizontalStack=0;resizeParent=1;resizeParentMax=0;resizeLast=0;collapsible=1;marginBottom=0;whiteSpace=wrap;html=1;" vertex="1" parent="1">
          <mxGeometry x="-350" y="424" width="280" height="186" as="geometry" />
        </mxCell>
        <mxCell id="6Mjb6FcMD5mgjPWifC1B-49" value="-&amp;nbsp;seats: Array&amp;lt;Array&amp;lt;SeatInfo&amp;gt;&amp;gt;" style="text;strokeColor=none;fillColor=none;align=left;verticalAlign=top;spacingLeft=4;spacingRight=4;overflow=hidden;rotatable=0;points=[[0,0.5],[1,0.5]];portConstraint=eastwest;whiteSpace=wrap;html=1;" vertex="1" parent="6Mjb6FcMD5mgjPWifC1B-48">
          <mxGeometry y="26" width="280" height="26" as="geometry" />
        </mxCell>
        <mxCell id="6Mjb6FcMD5mgjPWifC1B-75" value="-&amp;nbsp;seats: Array&amp;lt;Array&amp;lt;SeatInfo&amp;gt;&amp;gt;" style="text;strokeColor=none;fillColor=none;align=left;verticalAlign=top;spacingLeft=4;spacingRight=4;overflow=hidden;rotatable=0;points=[[0,0.5],[1,0.5]];portConstraint=eastwest;whiteSpace=wrap;html=1;" vertex="1" parent="6Mjb6FcMD5mgjPWifC1B-48">
          <mxGeometry y="52" width="280" height="26" as="geometry" />
        </mxCell>
        <mxCell id="6Mjb6FcMD5mgjPWifC1B-50" value="" style="line;strokeWidth=1;fillColor=none;align=left;verticalAlign=middle;spacingTop=-1;spacingLeft=3;spacingRight=3;rotatable=0;labelPosition=right;points=[];portConstraint=eastwest;strokeColor=inherit;" vertex="1" parent="6Mjb6FcMD5mgjPWifC1B-48">
          <mxGeometry y="78" width="280" height="8" as="geometry" />
        </mxCell>
        <mxCell id="6Mjb6FcMD5mgjPWifC1B-51" value="+&amp;nbsp;showtime(): Duration&lt;br&gt;+&amp;nbsp;verifySeatCoords(row: Int, column: Int): Boolean&lt;br&gt;+&amp;nbsp;onSeatSold(ticket: Ticket, row: Int, column: Int)&lt;br&gt;+&amp;nbsp;onSeatTaken(row: Int, column: Int): Boolean&lt;br&gt;+&amp;nbsp;onSeatReturn(row: Int, column: Int): Boolean&lt;br&gt;+&amp;nbsp;onSessionDeleted(ticketsReg: TicketsRegistry)" style="text;strokeColor=none;fillColor=none;align=left;verticalAlign=top;spacingLeft=4;spacingRight=4;overflow=hidden;rotatable=0;points=[[0,0.5],[1,0.5]];portConstraint=eastwest;whiteSpace=wrap;html=1;" vertex="1" parent="6Mjb6FcMD5mgjPWifC1B-48">
          <mxGeometry y="86" width="280" height="100" as="geometry" />
        </mxCell>
        <mxCell id="6Mjb6FcMD5mgjPWifC1B-52" value="SessionsRegistry : Registry" style="swimlane;fontStyle=1;align=center;verticalAlign=top;childLayout=stackLayout;horizontal=1;startSize=26;horizontalStack=0;resizeParent=1;resizeParentMax=0;resizeLast=0;collapsible=1;marginBottom=0;whiteSpace=wrap;html=1;" vertex="1" parent="1">
          <mxGeometry x="-478" y="240" width="400" height="110" as="geometry" />
        </mxCell>
        <mxCell id="6Mjb6FcMD5mgjPWifC1B-53" value="-&amp;nbsp;sessions: HashMap&amp;lt;Int, Session&amp;gt;" style="text;strokeColor=none;fillColor=none;align=left;verticalAlign=top;spacingLeft=4;spacingRight=4;overflow=hidden;rotatable=0;points=[[0,0.5],[1,0.5]];portConstraint=eastwest;whiteSpace=wrap;html=1;" vertex="1" parent="6Mjb6FcMD5mgjPWifC1B-52">
          <mxGeometry y="26" width="400" height="26" as="geometry" />
        </mxCell>
        <mxCell id="6Mjb6FcMD5mgjPWifC1B-54" value="" style="line;strokeWidth=1;fillColor=none;align=left;verticalAlign=middle;spacingTop=-1;spacingLeft=3;spacingRight=3;rotatable=0;labelPosition=right;points=[];portConstraint=eastwest;strokeColor=inherit;" vertex="1" parent="6Mjb6FcMD5mgjPWifC1B-52">
          <mxGeometry y="52" width="400" height="8" as="geometry" />
        </mxCell>
        <mxCell id="6Mjb6FcMD5mgjPWifC1B-55" value="+ addSession(start: Instant, end: Instant, film: Film): Pair&amp;lt;Int, Session&amp;gt;?&lt;br&gt;+&amp;nbsp;deleteSession(sessionNum: Int, ticketsReg: TicketsRegistry): Session?&lt;br&gt;+&amp;nbsp;getSession(sessionNum: Int): Session?" style="text;strokeColor=none;fillColor=none;align=left;verticalAlign=top;spacingLeft=4;spacingRight=4;overflow=hidden;rotatable=0;points=[[0,0.5],[1,0.5]];portConstraint=eastwest;whiteSpace=wrap;html=1;" vertex="1" parent="6Mjb6FcMD5mgjPWifC1B-52">
          <mxGeometry y="60" width="400" height="50" as="geometry" />
        </mxCell>
        <mxCell id="6Mjb6FcMD5mgjPWifC1B-56" value="StaffRegistry : Registry" style="swimlane;fontStyle=1;align=center;verticalAlign=top;childLayout=stackLayout;horizontal=1;startSize=26;horizontalStack=0;resizeParent=1;resizeParentMax=0;resizeLast=0;collapsible=1;marginBottom=0;whiteSpace=wrap;html=1;" vertex="1" parent="1">
          <mxGeometry x="-1688" y="240" width="350" height="120" as="geometry" />
        </mxCell>
        <mxCell id="6Mjb6FcMD5mgjPWifC1B-57" value="- users: HashMap&amp;lt;String, StaffUser&amp;gt;" style="text;strokeColor=none;fillColor=none;align=left;verticalAlign=top;spacingLeft=4;spacingRight=4;overflow=hidden;rotatable=0;points=[[0,0.5],[1,0.5]];portConstraint=eastwest;whiteSpace=wrap;html=1;" vertex="1" parent="6Mjb6FcMD5mgjPWifC1B-56">
          <mxGeometry y="26" width="350" height="26" as="geometry" />
        </mxCell>
        <mxCell id="6Mjb6FcMD5mgjPWifC1B-58" value="" style="line;strokeWidth=1;fillColor=none;align=left;verticalAlign=middle;spacingTop=-1;spacingLeft=3;spacingRight=3;rotatable=0;labelPosition=right;points=[];portConstraint=eastwest;strokeColor=inherit;" vertex="1" parent="6Mjb6FcMD5mgjPWifC1B-56">
          <mxGeometry y="52" width="350" height="8" as="geometry" />
        </mxCell>
        <mxCell id="6Mjb6FcMD5mgjPWifC1B-59" value="+&amp;nbsp;isRegistered(username: String): Boolean&lt;br&gt;+&amp;nbsp;registerUser(username: String, password: String)&lt;br&gt;+&amp;nbsp;verifyPassword(username: String, password: String): Boolean" style="text;strokeColor=none;fillColor=none;align=left;verticalAlign=top;spacingLeft=4;spacingRight=4;overflow=hidden;rotatable=0;points=[[0,0.5],[1,0.5]];portConstraint=eastwest;whiteSpace=wrap;html=1;" vertex="1" parent="6Mjb6FcMD5mgjPWifC1B-56">
          <mxGeometry y="60" width="350" height="60" as="geometry" />
        </mxCell>
        <mxCell id="6Mjb6FcMD5mgjPWifC1B-60" value="Ticket" style="swimlane;fontStyle=1;align=center;verticalAlign=top;childLayout=stackLayout;horizontal=1;startSize=26;horizontalStack=0;resizeParent=1;resizeParentMax=0;resizeLast=0;collapsible=1;marginBottom=0;whiteSpace=wrap;html=1;" vertex="1" parent="1">
          <mxGeometry x="-1260" y="390" width="160" height="100" as="geometry" />
        </mxCell>
        <mxCell id="6Mjb6FcMD5mgjPWifC1B-61" value="+ ticketNum: Int&lt;br&gt;+ sessionNumber: Int&lt;br&gt;+ row: Int&lt;br&gt;+ column: Int" style="text;strokeColor=none;fillColor=none;align=left;verticalAlign=top;spacingLeft=4;spacingRight=4;overflow=hidden;rotatable=0;points=[[0,0.5],[1,0.5]];portConstraint=eastwest;whiteSpace=wrap;html=1;" vertex="1" parent="6Mjb6FcMD5mgjPWifC1B-60">
          <mxGeometry y="26" width="160" height="74" as="geometry" />
        </mxCell>
        <mxCell id="6Mjb6FcMD5mgjPWifC1B-64" value="TicketsRegistry : Registry" style="swimlane;fontStyle=1;align=center;verticalAlign=top;childLayout=stackLayout;horizontal=1;startSize=26;horizontalStack=0;resizeParent=1;resizeParentMax=0;resizeLast=0;collapsible=1;marginBottom=0;whiteSpace=wrap;html=1;" vertex="1" parent="1">
          <mxGeometry x="-1313" y="240" width="410" height="120" as="geometry" />
        </mxCell>
        <mxCell id="6Mjb6FcMD5mgjPWifC1B-65" value="-&amp;nbsp;tickets: HashMap&amp;lt;Int, Ticket&amp;gt;" style="text;strokeColor=none;fillColor=none;align=left;verticalAlign=top;spacingLeft=4;spacingRight=4;overflow=hidden;rotatable=0;points=[[0,0.5],[1,0.5]];portConstraint=eastwest;whiteSpace=wrap;html=1;" vertex="1" parent="6Mjb6FcMD5mgjPWifC1B-64">
          <mxGeometry y="26" width="410" height="26" as="geometry" />
        </mxCell>
        <mxCell id="6Mjb6FcMD5mgjPWifC1B-66" value="" style="line;strokeWidth=1;fillColor=none;align=left;verticalAlign=middle;spacingTop=-1;spacingLeft=3;spacingRight=3;rotatable=0;labelPosition=right;points=[];portConstraint=eastwest;strokeColor=inherit;" vertex="1" parent="6Mjb6FcMD5mgjPWifC1B-64">
          <mxGeometry y="52" width="410" height="8" as="geometry" />
        </mxCell>
        <mxCell id="6Mjb6FcMD5mgjPWifC1B-67" value="+&amp;nbsp;newTicket(row: Int, column: Int, sessionNumber: Int): Ticket&lt;br&gt;+&amp;nbsp;deleteTicket(ticketNumber: Int, sessionsReg: SessionsRegistry): Boolean&lt;br&gt;+&amp;nbsp;deleteTicketOnSessionDeleted(ticketNumber: Int)" style="text;strokeColor=none;fillColor=none;align=left;verticalAlign=top;spacingLeft=4;spacingRight=4;overflow=hidden;rotatable=0;points=[[0,0.5],[1,0.5]];portConstraint=eastwest;whiteSpace=wrap;html=1;" vertex="1" parent="6Mjb6FcMD5mgjPWifC1B-64">
          <mxGeometry y="60" width="410" height="60" as="geometry" />
        </mxCell>
        <mxCell id="6Mjb6FcMD5mgjPWifC1B-68" value="UserInteractor" style="swimlane;fontStyle=1;align=center;verticalAlign=top;childLayout=stackLayout;horizontal=1;startSize=26;horizontalStack=0;resizeParent=1;resizeParentMax=0;resizeLast=0;collapsible=1;marginBottom=0;whiteSpace=wrap;html=1;" vertex="1" parent="1">
          <mxGeometry x="-1300" y="750" width="390" height="220" as="geometry" />
        </mxCell>
        <mxCell id="6Mjb6FcMD5mgjPWifC1B-69" value="- registry: StaffRegistry" style="text;strokeColor=none;fillColor=none;align=left;verticalAlign=top;spacingLeft=4;spacingRight=4;overflow=hidden;rotatable=0;points=[[0,0.5],[1,0.5]];portConstraint=eastwest;whiteSpace=wrap;html=1;" vertex="1" parent="6Mjb6FcMD5mgjPWifC1B-68">
          <mxGeometry y="26" width="390" height="26" as="geometry" />
        </mxCell>
        <mxCell id="6Mjb6FcMD5mgjPWifC1B-70" value="" style="line;strokeWidth=1;fillColor=none;align=left;verticalAlign=middle;spacingTop=-1;spacingLeft=3;spacingRight=3;rotatable=0;labelPosition=right;points=[];portConstraint=eastwest;strokeColor=inherit;" vertex="1" parent="6Mjb6FcMD5mgjPWifC1B-68">
          <mxGeometry y="52" width="390" height="8" as="geometry" />
        </mxCell>
        <mxCell id="6Mjb6FcMD5mgjPWifC1B-71" value="+&amp;nbsp;loginOrRegisterUser(): Boolean&lt;br&gt;+&amp;nbsp;nextCommand(): UserCommand&lt;br&gt;+&amp;nbsp;notifyExit()&lt;br&gt;+&amp;nbsp;notify(prompt: String)&lt;br&gt;+&amp;nbsp;requestPositiveInt(prompt: String): Int&lt;br&gt;+&amp;nbsp;requestIntAtLeast(minValue: Int, prompt: String): Int&lt;br&gt;+&amp;nbsp;requestNonEmptyString(prompt: String): String&lt;br&gt;+&amp;nbsp;requestString(prompt: String): String&lt;br&gt;+&amp;nbsp;requestIntBetween(minValue: Int, maxValue: Int, prompt: String): Int&lt;br&gt;+&amp;nbsp;requestDate(prompt: String): LocalDateTime?" style="text;strokeColor=none;fillColor=none;align=left;verticalAlign=top;spacingLeft=4;spacingRight=4;overflow=hidden;rotatable=0;points=[[0,0.5],[1,0.5]];portConstraint=eastwest;whiteSpace=wrap;html=1;" vertex="1" parent="6Mjb6FcMD5mgjPWifC1B-68">
          <mxGeometry y="60" width="390" height="160" as="geometry" />
        </mxCell>
        <mxCell id="6Mjb6FcMD5mgjPWifC1B-76" value="" style="html=1;startArrow=diamondThin;startFill=1;edgeStyle=elbowEdgeStyle;elbow=vertical;startSize=10;endArrow=none;endFill=0;rounded=0;entryX=1;entryY=0.25;entryDx=0;entryDy=0;exitX=1;exitY=0.5;exitDx=0;exitDy=0;" edge="1" parent="1" source="6Mjb6FcMD5mgjPWifC1B-49" target="6Mjb6FcMD5mgjPWifC1B-44">
          <mxGeometry width="160" relative="1" as="geometry">
            <mxPoint x="-20" y="460" as="sourcePoint" />
            <mxPoint x="-20" y="630" as="targetPoint" />
            <Array as="points">
              <mxPoint x="-20" y="670" />
            </Array>
          </mxGeometry>
        </mxCell>
        <mxCell id="6Mjb6FcMD5mgjPWifC1B-78" value="" style="html=1;startArrow=diamondThin;startFill=1;edgeStyle=elbowEdgeStyle;elbow=vertical;startSize=10;endArrow=none;endFill=0;rounded=0;entryX=0;entryY=0.25;entryDx=0;entryDy=0;" edge="1" parent="1" target="6Mjb6FcMD5mgjPWifC1B-60">
          <mxGeometry width="160" relative="1" as="geometry">
            <mxPoint x="-1297" y="360" as="sourcePoint" />
            <mxPoint x="-1120" y="414.9999999999999" as="targetPoint" />
            <Array as="points">
              <mxPoint x="-1230" y="415" />
            </Array>
          </mxGeometry>
        </mxCell>
        <mxCell id="6Mjb6FcMD5mgjPWifC1B-79" value="" style="html=1;startArrow=diamondThin;startFill=1;edgeStyle=elbowEdgeStyle;elbow=vertical;startSize=10;endArrow=none;endFill=0;rounded=0;entryX=0.782;entryY=1.108;entryDx=0;entryDy=0;entryPerimeter=0;exitX=0.5;exitY=0;exitDx=0;exitDy=0;" edge="1" parent="1" source="6Mjb6FcMD5mgjPWifC1B-25" target="6Mjb6FcMD5mgjPWifC1B-67">
          <mxGeometry width="160" relative="1" as="geometry">
            <mxPoint x="-1010" y="530" as="sourcePoint" />
            <mxPoint x="-850" y="530" as="targetPoint" />
          </mxGeometry>
        </mxCell>
        <mxCell id="6Mjb6FcMD5mgjPWifC1B-80" value="" style="html=1;startArrow=diamondThin;startFill=1;edgeStyle=elbowEdgeStyle;elbow=vertical;startSize=10;endArrow=none;endFill=0;rounded=0;entryX=0.609;entryY=1.038;entryDx=0;entryDy=0;entryPerimeter=0;exitX=0.5;exitY=0;exitDx=0;exitDy=0;" edge="1" parent="1" source="6Mjb6FcMD5mgjPWifC1B-25" target="6Mjb6FcMD5mgjPWifC1B-39">
          <mxGeometry width="160" relative="1" as="geometry">
            <mxPoint x="-860" y="480" as="sourcePoint" />
            <mxPoint x="-700" y="480" as="targetPoint" />
            <Array as="points">
              <mxPoint x="-670" y="560" />
            </Array>
          </mxGeometry>
        </mxCell>
        <mxCell id="6Mjb6FcMD5mgjPWifC1B-81" value="" style="html=1;startArrow=diamondThin;startFill=1;edgeStyle=elbowEdgeStyle;elbow=vertical;startSize=10;endArrow=none;endFill=0;rounded=0;entryX=0.177;entryY=1.184;entryDx=0;entryDy=0;entryPerimeter=0;exitX=0.5;exitY=0;exitDx=0;exitDy=0;" edge="1" parent="1" source="6Mjb6FcMD5mgjPWifC1B-25" target="6Mjb6FcMD5mgjPWifC1B-55">
          <mxGeometry width="160" relative="1" as="geometry">
            <mxPoint x="-660" y="580" as="sourcePoint" />
            <mxPoint x="-500" y="580" as="targetPoint" />
          </mxGeometry>
        </mxCell>
        <mxCell id="6Mjb6FcMD5mgjPWifC1B-82" value="" style="html=1;startArrow=diamondThin;startFill=1;edgeStyle=elbowEdgeStyle;elbow=vertical;startSize=10;endArrow=none;endFill=0;rounded=0;entryX=0.595;entryY=1.108;entryDx=0;entryDy=0;entryPerimeter=0;exitX=0.5;exitY=0;exitDx=0;exitDy=0;" edge="1" parent="1" source="6Mjb6FcMD5mgjPWifC1B-25" target="6Mjb6FcMD5mgjPWifC1B-59">
          <mxGeometry width="160" relative="1" as="geometry">
            <mxPoint x="-1560" y="500" as="sourcePoint" />
            <mxPoint x="-1400" y="500" as="targetPoint" />
          </mxGeometry>
        </mxCell>
        <mxCell id="6Mjb6FcMD5mgjPWifC1B-84" value="" style="html=1;startArrow=diamondThin;startFill=1;edgeStyle=elbowEdgeStyle;elbow=vertical;startSize=10;endArrow=none;endFill=0;rounded=0;exitX=0;exitY=0.5;exitDx=0;exitDy=0;entryX=1.002;entryY=0.128;entryDx=0;entryDy=0;entryPerimeter=0;" edge="1" parent="1" source="6Mjb6FcMD5mgjPWifC1B-26" target="6Mjb6FcMD5mgjPWifC1B-71">
          <mxGeometry width="160" relative="1" as="geometry">
            <mxPoint x="-818.44" y="833.8" as="sourcePoint" />
            <mxPoint x="-890" y="830" as="targetPoint" />
          </mxGeometry>
        </mxCell>
        <mxCell id="6Mjb6FcMD5mgjPWifC1B-85" value="" style="edgeStyle=none;html=1;endSize=12;endArrow=block;endFill=0;rounded=0;exitX=0.75;exitY=0;exitDx=0;exitDy=0;entryX=0;entryY=0.25;entryDx=0;entryDy=0;" edge="1" parent="1" source="6Mjb6FcMD5mgjPWifC1B-56" target="6Mjb6FcMD5mgjPWifC1B-40">
          <mxGeometry width="160" relative="1" as="geometry">
            <mxPoint x="-1180" y="160" as="sourcePoint" />
            <mxPoint x="-1020" y="160" as="targetPoint" />
          </mxGeometry>
        </mxCell>
        <mxCell id="6Mjb6FcMD5mgjPWifC1B-86" value="" style="edgeStyle=none;html=1;endSize=12;endArrow=block;endFill=0;rounded=0;exitX=0.5;exitY=0;exitDx=0;exitDy=0;entryX=0.117;entryY=0.965;entryDx=0;entryDy=0;entryPerimeter=0;" edge="1" parent="1" source="6Mjb6FcMD5mgjPWifC1B-64" target="6Mjb6FcMD5mgjPWifC1B-43">
          <mxGeometry width="160" relative="1" as="geometry">
            <mxPoint x="-1340" y="60" as="sourcePoint" />
            <mxPoint x="-1180" y="60" as="targetPoint" />
          </mxGeometry>
        </mxCell>
        <mxCell id="6Mjb6FcMD5mgjPWifC1B-87" value="" style="edgeStyle=none;html=1;endSize=12;endArrow=block;endFill=0;rounded=0;entryX=0.569;entryY=1.185;entryDx=0;entryDy=0;entryPerimeter=0;exitX=0.5;exitY=0;exitDx=0;exitDy=0;" edge="1" parent="1" source="6Mjb6FcMD5mgjPWifC1B-36" target="6Mjb6FcMD5mgjPWifC1B-43">
          <mxGeometry width="160" relative="1" as="geometry">
            <mxPoint x="-1020" y="90" as="sourcePoint" />
            <mxPoint x="-860" y="90" as="targetPoint" />
          </mxGeometry>
        </mxCell>
        <mxCell id="6Mjb6FcMD5mgjPWifC1B-88" value="" style="edgeStyle=none;html=1;endSize=12;endArrow=block;endFill=0;rounded=0;exitX=0.25;exitY=0;exitDx=0;exitDy=0;entryX=1;entryY=0.5;entryDx=0;entryDy=0;" edge="1" parent="1" source="6Mjb6FcMD5mgjPWifC1B-52" target="6Mjb6FcMD5mgjPWifC1B-43">
          <mxGeometry width="160" relative="1" as="geometry">
            <mxPoint x="-570" y="170" as="sourcePoint" />
            <mxPoint x="-410" y="170" as="targetPoint" />
          </mxGeometry>
        </mxCell>
        <mxCell id="6Mjb6FcMD5mgjPWifC1B-90" value="" style="html=1;startArrow=diamondThin;startFill=1;edgeStyle=elbowEdgeStyle;elbow=vertical;startSize=10;endArrow=none;endFill=0;rounded=0;entryX=0.25;entryY=0;entryDx=0;entryDy=0;exitX=0.125;exitY=0.995;exitDx=0;exitDy=0;exitPerimeter=0;" edge="1" parent="1" source="6Mjb6FcMD5mgjPWifC1B-39" target="6Mjb6FcMD5mgjPWifC1B-21">
          <mxGeometry width="160" relative="1" as="geometry">
            <mxPoint x="-920" y="517.63" as="sourcePoint" />
            <mxPoint x="-878.1200000000003" y="399.99800000000005" as="targetPoint" />
          </mxGeometry>
        </mxCell>
        <mxCell id="6Mjb6FcMD5mgjPWifC1B-93" value="" style="endArrow=none;html=1;endFill=0;startArrow=diamondThin;startFill=1;edgeStyle=elbowEdgeStyle;elbow=vertical;rounded=0;entryX=1.015;entryY=0.091;entryDx=0;entryDy=0;entryPerimeter=0;exitX=1;exitY=0.5;exitDx=0;exitDy=0;" edge="1" parent="1" source="6Mjb6FcMD5mgjPWifC1B-53" target="6Mjb6FcMD5mgjPWifC1B-48">
          <mxGeometry width="100" height="75" relative="1" as="geometry">
            <mxPoint x="-40" y="270" as="sourcePoint" />
            <mxPoint x="60" y="270" as="targetPoint" />
            <Array as="points">
              <mxPoint x="-50" y="400" />
            </Array>
          </mxGeometry>
        </mxCell>
      </root>
    </mxGraphModel>
  </diagram>
</mxfile>
